HIERARCHY
ROOT Hips
{
	OFFSET 0.000000 0.000000 0.000000 
	CHANNELS 6 Xposition Yposition Zposition Yrotation Zrotation Xrotation 
	JOINT Lumbar
	{
		OFFSET 0.000000 0.000000 0.000000 
		CHANNELS 3 Zrotation Xrotation Yrotation
		JOINT Neck
		{
			OFFSET 0.000000 0.445665 0.000000 
			CHANNELS 3 Zrotation Xrotation Yrotation
			End Site
			{
				OFFSET 0.000000 0.227535 0.000000 
			}
		}
		JOINT RightShoulder
		{
			OFFSET 0.019635 0.377685 0.194865 
			CHANNELS 3 Zrotation Xrotation Yrotation
			JOINT RightElbow
			{
				OFFSET 0.000000 -0.243375 0.000000 
				CHANNELS 2 Zrotation Yrotation
				JOINT RightWrist
				{
					OFFSET 0.000000 -0.264825 0.000000 
					CHANNELS 2 Zrotation Xrotation
					End Site
					{
						OFFSET 0.006600 -0.176220 0.000990 
					}
				}
			}
		}
		JOINT LeftShoulder
		{
			OFFSET 0.019635 0.377685 -0.194865 
			CHANNELS 3 Zrotation Xrotation Yrotation
			JOINT LeftElbow
			{
				OFFSET 0.000000 -0.243375 0.000000 
				CHANNELS 2 Zrotation Yrotation
				JOINT LeftWrist
				{
					OFFSET 0.000000 -0.264825 0.000000 
					CHANNELS 2 Zrotation Xrotation
					End Site
					{
						OFFSET 0.006600 -0.176220 -0.000990 
					}
				}
			}
		}
	}
	JOINT RightHip
	{
		OFFSET 0.052140 -0.069960 0.075570 
		CHANNELS 3 Zrotation Xrotation Yrotation
		JOINT RightKnee
		{
			OFFSET 0.000000 -0.402270 0.000000 
			CHANNELS 1 Zrotation
			JOINT RightAnkle
			{
				OFFSET 0.000000 -0.404085 0.000000 
				CHANNELS 3 Zrotation Xrotation Yrotation
				End Site
				{
					OFFSET 0.204105 -0.089430 0.008415 
				}
			}
		}
	}
	JOINT LeftHip
	{
		OFFSET 0.052140 -0.069960 -0.075570 
		CHANNELS 3 Zrotation Xrotation Yrotation
		JOINT LeftKnee
		{
			OFFSET 0.000000 -0.402270 0.000000 
			CHANNELS 1 Zrotation
			JOINT LeftAnkle
			{
				OFFSET 0.000000 -0.404085 0.000000 
				CHANNELS 3 Zrotation Xrotation Yrotation
				End Site
				{
					OFFSET 0.204105 -0.089430 -0.008415 
				}
			}
		}
	}
}
MOTION
Frames: 33
Frame Time: 0.02
-0.0004 -3e-05 -7e-05 -174.06503 -41.02234 -2.33803 49.60668 1.60982 -7.28225 3.16948 -0.76908 -0.97242 -20.76209 -7.7732 -13.42351 34.60164 162.76054 23.9731 13.89585 -21.77623 19.27583 -9.93984 45.85636 -106.2144 14.97909 -2.31453 44.76786 -0.46436 -14.9182 -19.21655 -6.17345 -1.75574 -3.07446 47.45723 1.71532 2.26331 -25.14483 -6.38872 2.70833 3.5237
-0.00062 -4e-05 -2e-05 -174.1855 -41.01653 -2.35844 49.66011 1.6173 -7.2518 3.14752 -0.69476 -0.9743 -20.69256 -7.78178 -12.04349 34.71224 155.57348 22.15333 12.61809 -21.87766 18.73719 -10.16181 46.16852 -105.76664 14.78771 -2.28741 44.76286 -0.42857 -14.73141 -19.21489 -6.17405 -1.75965 -3.07706 47.41582 1.82377 2.73369 -25.13733 -6.38168 2.66752 3.50421
-0.00083 -4e-05 2e-05 -174.30551 -41.01071 -2.3788 49.71335 1.6247 -7.2216 3.12567 -0.62059 -0.97617 -20.62318 -7.79014 -10.66748 34.82252 148.40862 20.33922 11.34426 -21.97861 18.19972 -10.3842 46.48007 -105.32034 14.59712 -2.26032 44.75784 -0.39286 -14.54514 -19.21323 -6.17464 -1.76357 -3.07965 47.37451 1.93191 3.2027 -25.12985 -6.37466 2.62682 3.48476
-0.00105 -5e-05 6e-05 -174.42559 -41.00492 -2.39915 49.76662 1.63215 -7.19127 3.1038 -0.54649 -0.97805 -20.55386 -7.79865 -9.29167 34.93279 141.24371 18.52506 10.07043 -22.0797 17.66263 -10.60568 46.79132 -104.87397 14.40637 -2.23327 44.75285 -0.35718 -14.35891 -19.21157 -6.17523 -1.76747 -3.08223 47.33323 2.04003 3.67164 -25.12237 -6.36764 2.58613 3.46532
-0.00127 -5e-05 0.00011 -174.54617 -40.99915 -2.41955 49.82008 1.63968 -7.16064 3.08179 -0.47226 -0.97992 -20.48443 -7.80749 -7.91197 35.04336 134.05658 16.70524 8.79269 -22.18132 17.12461 -10.82629 47.10306 -104.4261 14.21477 -2.20623 44.74789 -0.32142 -14.17218 -19.2099 -6.17584 -1.77135 -3.08482 47.29186 2.14845 4.14194 -25.11488 -6.3606 2.54534 3.44583
-0.00148 -6e-05 0.00015 -174.66497 -40.99321 -2.43981 49.87287 1.64683 -7.13133 3.06028 -0.39822 -0.98179 -20.41515 -7.81488 -6.54379 35.153 126.93893 14.90325 7.52715 -22.28087 16.5884 -11.05237 47.41421 -103.98315 14.02629 -2.17903 44.74272 -0.28583 -13.98689 -19.20825 -6.17639 -1.77534 -3.08743 47.25067 2.256 4.60822 -25.10741 -6.35361 2.50484 3.42649
-0.0017 -6e-05 0.0002 -174.7872 -40.98763 -2.46032 49.92694 1.65473 -7.09942 3.0378 -0.32389 -0.98367 -20.34563 -7.82504 -5.15396 35.26441 119.68973 13.06745 6.23852 -22.38448 16.04898 -11.26731 47.72617 -103.53081 13.83177 -2.15217 44.73799 -0.24994 -13.79889 -19.20658 -6.17705 -1.77912 -3.08998 47.20918 2.36516 5.08199 -25.09991 -6.34653 2.46379 3.40687
-0.00191 -7e-05 0.00024 -174.90632 -40.98171 -2.48061 49.97985 1.66195 -7.06985 3.01618 -0.24982 -0.98554 -20.27637 -7.83289 -3.78406 35.37416 112.5611 11.26266 4.97106 -22.48433 15.5128 -11.49229 48.03743 -103.08709 13.64277 -2.12502 44.73286 -0.21433 -13.61342 -19.20493 -6.17761 -1.78308 -3.09258 47.16796 2.47288 5.54901 -25.09244 -6.33953 2.42324 3.3875
-0.00212 -7e-05 0.00029 -175.02146 -40.97538 -2.5006 50.03127 1.6683 -7.0434 2.99577 -0.17604 -0.9874 -20.20723 -7.83695 -2.43805 35.48206 105.57982 9.49567 3.72942 -22.57969 14.97914 -11.73076 48.34782 -102.65386 13.46065 -2.09737 44.72718 -0.17903 -13.43084 -19.20327 -6.17804 -1.78731 -3.09528 47.12704 2.57873 6.00736 -25.08499 -6.33266 2.38334 3.36844
-0.00236 -8e-05 0.00033 -175.15896 -40.97142 -2.52225 50.09108 1.67952 -6.99977 2.96889 -0.10051 -0.98931 -20.13678 -7.85989 -0.95311 35.60113 97.75044 7.51085 2.33902 -22.70118 14.42662 -11.89534 48.66322 -102.16014 13.23936 -2.07219 44.72452 -0.14184 -13.23102 -19.20157 -6.17921 -1.79012 -3.0975 47.0843 2.69499 6.51434 -25.07738 -6.32511 2.33982 3.34761
-0.00254 -8e-05 0.00037 -175.24962 -40.96248 -2.54042 50.13327 1.68055 -6.99186 2.95534 -0.02873 -0.99112 -20.06951 -7.84488 0.23763 35.69629 91.71111 5.98597 1.2627 -22.76735 13.91677 -12.2133 48.96799 -101.79414 13.10044 -2.04205 44.71559 -0.10869 -13.06798 -19.2 -6.17883 -1.79585 -3.1007 47.04547 2.78949 6.9195 -25.07013 -6.31898 2.30387 3.3305
-0.00253 -9e-05 0.00043 -175.20762 -40.93941 -2.54865 50.12616 1.65261 -7.08743 2.9811 0.03334 -0.99271 -20.00784 -7.70898 0.62272 35.7283 90.6259 5.73241 1.05479 -22.68181 13.50156 -12.97645 49.24323 -101.78142 13.19217 -1.99622 44.68831 -0.08639 -13.00355 -19.19855 -6.17403 -1.81031 -3.10687 47.01699 2.82195 7.03622 -25.06361 -6.31682 2.28937 3.32388
-0.00246 -0.0001 0.00048 -175.11934 -40.9114 -2.55343 50.10154 1.6146 -7.21783 3.01964 0.09162 -0.99421 -19.95003 -7.53803 0.71221 35.73595 91.33111 5.93914 1.16116 -22.54076 13.13346 -13.88854 49.5074 -101.89654 13.36587 -1.94581 44.65493 -0.06819 -12.97649 -19.19729 -6.16772 -1.82758 -3.11396 46.99251 2.83296 7.05233 -25.05752 -6.31608 2.28236 3.32095
-0.00242 -0.00011 0.00053 -175.05491 -40.88598 -2.56003 50.0856 1.58189 -7.32874 3.05068 0.1512 -0.99574 -19.89246 -7.39408 0.93574 35.753 91.18847 5.92901 1.11928 -22.425 12.75832 -14.71734 49.77741 -101.95115 13.4989 -1.89886 44.62513 -0.04827 -12.93386 -19.19612 -6.16222 -1.84311 -3.12043 46.96649 2.85531 7.12048 -25.05139 -6.31463 2.27148 3.31613
-0.00239 -0.00012 0.0006 -174.9785 -40.8592 -2.56563 50.06664 1.54621 -7.45524 3.0893 0.21227 -0.99731 -19.82625 -7.20346 1.15948 35.77663 91.19048 5.95152 1.10042 -22.30866 12.32219 -15.61469 50.0458 -102.0157 13.64604 -1.84608 44.59199 -0.02774 -12.88533 -19.19419 -6.15615 -1.8606 -3.12776 46.93938 2.87094 7.16202 -25.04455 -6.31343 2.26255 3.31218
-0.00233 -0.00013 0.00062 -174.91609 -40.83394 -2.57242 50.04974 1.51417 -7.55743 3.11461 0.26968 -0.99878 -19.77923 -7.10157 1.31327 35.78132 91.31969 6.01601 1.10873 -22.18063 12.02482 -16.40161 50.31267 -102.09048 13.78382 -1.80435 44.56426 -0.00946 -12.85794 -19.19391 -6.15094 -1.87468 -3.13352 46.91538 2.8954 7.23479 -25.03933 -6.31206 2.25139 3.30732
-0.00223 -0.00012 0.00048 -174.90367 -40.81525 -2.584 50.04356 1.49596 -7.585 3.1043 0.31546 -0.99992 -19.78203 -7.25465 1.34188 35.73533 91.32677 6.07672 1.10968 -22.03222 12.09404 -16.8714 50.59755 -102.15633 13.87023 -1.79434 44.55382 0.00393 -12.87978 -19.19788 -6.14841 -1.87859 -3.13466 46.89982 2.95038 7.42117 -25.03815 -6.3098 2.23163 3.29892
-0.0021 -0.00012 0.00027 -174.90694 -40.79801 -2.5968 50.03992 1.48146 -7.5869 3.07908 0.3584 -1.00097 -19.80453 -7.49783 1.31075 35.67219 91.41033 6.16618 1.12877 -21.87454 12.3021 -17.22008 50.87758 -102.22918 13.94531 -1.79562 44.54882 0.01519 -12.92155 -19.20353 -6.14681 -1.879 -3.13419 46.88706 3.01476 7.64156 -25.03863 -6.30735 2.2095 3.28952
-0.00198 -0.00011 0.0001 -174.9031 -40.77942 -2.60859 50.03459 1.46448 -7.59961 3.05822 0.40393 -1.0021 -19.81934 -7.6991 1.3105 35.61943 91.47595 6.24539 1.14211 -21.72194 12.45006 -17.6086 51.14717 -102.30255 14.02924 -1.79163 44.54085 0.0272 -12.95428 -19.20862 -6.14479 -1.88106 -3.13447 46.87253 3.07435 7.8451 -25.03854 -6.30504 2.18884 3.28065
-0.00187 -0.0001 -7e-05 -174.89769 -40.76376 -2.62207 50.03086 1.45074 -7.61633 3.04912 0.44284 -1.00308 -19.82852 -7.90393 1.28601 35.55386 91.51551 6.32375 1.15287 -21.56276 12.58753 -18.06755 51.47008 -102.36447 14.10074 -1.78794 44.53501 0.03987 -12.98848 -19.21299 -6.14269 -1.88293 -3.13468 46.86042 3.13567 8.05267 -25.0377 -6.30254 2.16673 3.27154
-0.00174 -0.0001 -0.00027 -174.89971 -40.74218 -2.63249 50.02472 1.43093 -7.61915 3.01044 0.49615 -1.00436 -19.8546 -8.12228 1.29937 35.5125 91.62627 6.41106 1.17299 -21.41706 12.77856 -18.3478 51.68051 -102.45062 14.19396 -1.78651 44.52579 0.05086 -13.02356 -19.21913 -6.14101 -1.88436 -3.13467 46.84368 3.19555 8.25914 -25.03877 -6.30039 2.14704 3.26271
-0.00152 -0.00011 -0.00051 -174.92055 -40.70576 -2.63334 50.01049 1.39643 -7.5811 2.90506 0.5797 -1.00646 -19.91806 -8.36467 1.45432 35.53217 91.70316 6.45573 1.17838 -21.30101 13.0882 -18.17299 51.58551 -102.59743 14.35295 -1.78744 44.50866 0.05624 -13.05904 -19.2307 -6.14023 -1.88492 -3.13423 46.81511 3.25245 8.47351 -25.04511 -6.299 2.13393 3.25427
-0.00127 -0.00012 -0.00077 -174.94847 -40.66301 -2.63129 49.99395 1.35524 -7.53129 2.76809 0.68 -1.00894 -19.99882 -8.61657 1.64757 35.57931 91.86985 6.51471 1.19606 -21.20144 13.44537 -17.81911 51.37714 -102.76826 14.53303 -1.79047 44.4875 0.06022 -13.09423 -19.24382 -6.13988 -1.88516 -3.13364 46.78146 3.3072 8.68309 -25.05323 -6.29799 2.12341 3.24625
-0.00104 -0.00013 -0.00103 -174.97159 -40.62192 -2.63109 49.97918 1.31514 -7.49256 2.63825 0.77906 -1.01121 -20.07431 -8.85801 1.80901 35.61987 92.13754 6.60774 1.23233 -21.10045 13.77807 -17.54203 51.2177 -102.93081 14.70132 -1.79332 44.46636 0.0659 -13.12723 -19.25559 -6.13937 -1.88595 -3.1333 46.74906 3.36076 8.88202 -25.06025 -6.29695 2.11213 3.23846
-0.00081 -0.00016 -0.00128 -175.00066 -40.58594 -2.62853 49.96168 1.28318 -7.42918 2.539 0.85015 -1.01339 -20.13879 -9.12664 2.02554 35.63272 91.85021 6.54174 1.17417 -20.97149 14.12972 -17.2844 51.06761 -103.08389 14.8794 -1.79332 44.45287 0.06726 -13.16984 -19.27011 -6.13868 -1.88518 -3.13224 46.72128 3.4233 9.13388 -25.06853 -6.29531 2.09907 3.22892
-0.00057 -0.00015 -0.00154 -175.02041 -40.53788 -2.63036 49.94901 1.23291 -7.41414 2.36799 0.98474 -1.01614 -20.23101 -9.34201 2.14153 35.71277 92.68904 6.79628 1.30681 -20.90732 14.44894 -16.93995 50.87298 -103.26064 15.04124 -1.79955 44.42263 0.07703 -13.19326 -19.2793 -6.13852 -1.88729 -3.13251 46.68257 3.46709 9.27687 -25.07461 -6.295 2.09029 3.22306
-0.00033 -5e-05 -0.00184 -174.99987 -40.45734 -2.64349 49.95268 1.13143 -7.54026 2.013 1.27993 -1.01797 -20.3867 -9.38738 1.93192 35.9472 97.04976 8.05114 2.03753 -20.99802 14.68601 -16.44451 50.56808 -103.51005 15.16101 -1.82296 44.34567 0.11293 -13.15313 -19.27291 -6.13915 -1.90041 -3.13779 46.61564 3.45434 9.09472 -25.07393 -6.29827 2.09335 3.22791
-0.0001 9e-05 -0.00215 -174.97259 -40.36504 -2.66142 49.96087 1.0123 -7.71467 1.58582 1.64031 -1.02076 -20.57078 -9.38181 1.62563 36.25219 102.46502 9.60725 2.94691 -21.15781 14.88395 -15.85946 50.22543 -103.77954 15.262 -1.85237 44.25239 0.15689 -13.09532 -19.26119 -6.14042 -1.91588 -3.14417 46.53783 3.42362 8.80759 -25.07103 -6.30285 2.10057 3.23637
0.00014 0.00022 -0.00245 -174.95598 -40.27845 -2.67813 49.96532 0.90255 -7.86392 1.1874 1.97798 -1.02478 -20.74823 -9.41311 1.39138 36.54201 107.10461 10.94549 3.72439 -21.29828 15.08737 -15.28735 49.90952 -104.03163 15.36679 -1.87866 44.16731 0.19551 -13.05283 -19.25222 -6.14172 -1.92835 -3.1492 46.46445 3.40469 8.58547 -25.06928 -6.30679 2.10541 3.2427
0.00036 0.00033 -0.00276 -174.90515 -40.18978 -2.69067 49.97662 0.78628 -8.02627 0.80459 2.28754 -1.02205 -20.90183 -9.3885 1.04673 36.76462 112.97442 12.61985 4.71208 -21.38555 15.34689 -14.82875 49.54785 -104.3211 15.49348 -1.90682 44.07813 0.24115 -12.9807 -19.24191 -6.14156 -1.94903 -3.15783 46.39278 3.37088 8.29105 -25.06693 -6.31088 2.11219 3.25096
0.00063 0.00048 -0.00305 -174.92686 -40.10315 -2.71307 49.97497 0.68021 -8.17303 0.37302 2.67028 -1.03327 -21.10907 -9.4661 0.89985 37.13961 116.56177 13.67329 5.30957 -21.6033 15.47659 -14.11162 49.27566 -104.53515 15.56835 -1.93235 43.9945 0.27411 -12.96469 -19.23313 -6.14472 -1.95308 -3.15918 46.31539 3.36323 8.12124 -25.06533 -6.31501 2.11617 3.25623
0.00102 0.00071 -0.0033 -175.12566 -40.02121 -2.76167 49.93466 0.60052 -8.265 -0.18006 3.24444 -1.08558 -21.47871 -9.85625 1.39828 37.95255 113.32143 12.87036 4.73911 -22.13433 15.28373 -12.73266 49.24597 -104.55474 15.51785 -1.95039 43.9231 0.27014 -13.1199 -19.22974 -6.15594 -1.91141 -3.14051 46.22182 3.43699 8.32932 -25.06599 -6.3186 2.10898 3.25087
0.00147 0.00097 -0.00352 -175.40253 -39.94239 -2.82001 49.88142 0.53289 -8.34018 -0.77905 3.88874 -1.15141 -21.89691 -10.34812 2.08522 38.90983 107.79582 11.4445 3.77822 -22.79941 14.95694 -11.09353 49.31057 -104.49516 15.41389 -1.96544 43.85913 0.25318 -13.32975 -19.22808 -6.17064 -1.85279 -3.11441 46.12341 3.53658 8.66392 -25.06754 -6.32229 2.09939 3.2427
